<svg id="Gruppe_6" data-name="Gruppe 6" xmlns="http://www.w3.org/2000/svg" width="640" height="480" viewBox="0 0 640 480">
  <rect id="Rechteck_14" data-name="Rechteck 14" width="640" height="480" fill="none"/>
  <path id="Pfad_2" data-name="Pfad 2" d="M-31,209.788v21.575h10.788V209.788H1.363V199H-20.212A10.819,10.819,0,0,0-31,209.788Zm10.788,283.769H-31v21.575A10.819,10.819,0,0,0-20.212,525.92H1.363V515.132H-20.212Zm458.194,21.367H416.407v10.788h21.575a10.819,10.819,0,0,0,10.788-10.788V493.348H437.982Zm.34-315.459H416.747v10.788h21.575v21.575H449.11V210.253A10.819,10.819,0,0,0,438.322,199.465Z" transform="translate(111.123 -122)" fill="#4985fa"/>
</svg>


