<svg xmlns="http://www.w3.org/2000/svg" width="640" height="480.001" viewBox="0 0 640 480.001">
  <g id="Gruppe_5" data-name="Gruppe 5" transform="translate(0 0)">
    <path id="Differenzmenge_1" data-name="Differenzmenge 1" d="M643-1514H33a14.9,14.9,0,0,1-10.607-4.393A14.9,14.9,0,0,1,18-1529v-450a14.9,14.9,0,0,1,4.393-10.607A14.9,14.9,0,0,1,33-1994H643a14.9,14.9,0,0,1,10.607,4.394A14.9,14.9,0,0,1,658-1979v450a14.9,14.9,0,0,1-4.394,10.607A14.9,14.9,0,0,1,643-1514ZM113-1917a14.9,14.9,0,0,0-10.607,4.393A14.9,14.9,0,0,0,98-1902v297a14.9,14.9,0,0,0,4.393,10.606A14.9,14.9,0,0,0,113-1590H563a14.9,14.9,0,0,0,10.606-4.393A14.9,14.9,0,0,0,578-1605v-297a14.9,14.9,0,0,0-4.393-10.607A14.9,14.9,0,0,0,563-1917Z" transform="translate(-18 1994)" fill="rgba(117,117,117,0.29)"/>
    <path id="Pfad_2" data-name="Pfad 2" d="M-31,209.788v21.575h10.788V209.788H1.363V199H-20.212A10.819,10.819,0,0,0-31,209.788Zm10.788,283.769H-31v21.575A10.819,10.819,0,0,0-20.212,525.92H1.363V515.132H-20.212Zm458.194,21.367H416.407v10.788h21.575a10.819,10.819,0,0,0,10.788-10.788V493.348H437.982Zm.34-315.459H416.747v10.788h21.575v21.575H449.11V210.253A10.819,10.819,0,0,0,438.322,199.465Z" transform="translate(111.123 -122)" fill="#4985fa"/>
  </g>
</svg>
